<svg width="55" height="55" viewBox="0 0 55 55" fill="none" xmlns="http://www.w3.org/2000/svg">
<path fill-rule="evenodd" clip-rule="evenodd" d="M11.7416 0C5.25688 0 0 5.25688 0 11.7416V43.2584C0 49.7431 5.25688 55 11.7416 55H43.2584C49.7431 55 55 49.7431 55 43.2584V11.7416C55 5.25688 49.7431 0 43.2584 0H11.7416ZM9.63566 21.2496C8.6124 23.0915 8.10077 25.1948 8.10077 27.5597C8.10077 29.9245 8.6124 32.0279 9.63566 33.8698C10.6589 35.7116 12.0801 37.1556 13.8992 38.2016C15.7411 39.2248 17.8217 39.7364 20.1411 39.7364C22.9835 39.7364 25.4165 38.9974 27.4403 37.5194C29.4641 36.0186 30.8171 33.9721 31.4992 31.3798H25.0868C24.6093 32.3804 23.9271 33.1421 23.0403 33.6651C22.1762 34.1881 21.1871 34.4496 20.0729 34.4496C18.2765 34.4496 16.8212 33.8243 15.707 32.5736C14.5928 31.323 14.0357 29.6517 14.0357 27.5597C14.0357 25.4677 14.5928 23.7964 15.707 22.5457C16.8212 21.2951 18.2765 20.6698 20.0729 20.6698C21.1871 20.6698 22.1762 20.9313 23.0403 21.4543C23.9271 21.9773 24.6093 22.739 25.0868 23.7395H31.4992C30.8171 21.1473 29.4641 19.1008 27.4403 17.6C25.4165 16.0992 22.9835 15.3488 20.1411 15.3488C17.8217 15.3488 15.7411 15.8718 13.8992 16.9178C12.0801 17.9411 10.6589 19.385 9.63566 21.2496ZM43.4617 21.2496C42.4385 21.8408 41.5858 22.6594 40.9036 23.7054V20.5333H35.071V39.5659H40.9036V30.7318C40.9036 29.1628 41.2674 28.0713 41.9951 27.4574C42.7227 26.8207 43.8142 26.5023 45.2695 26.5023H46.8726V20.3287C45.6219 20.3287 44.485 20.6357 43.4617 21.2496Z" fill="white"/>
</svg>
