<svg width="70" height="70" viewBox="0 0 70 70" fill="none" xmlns="http://www.w3.org/2000/svg">
<path d="M21.406 29.414L35 15.82L48.601 29.421L56.511 21.511L35 0L13.496 21.504L21.406 29.414Z" fill="#FFC500"/>
<path d="M43.022 34.993H43.0255L35 26.971L29.0675 32.9L28.385 33.5825L26.9815 34.9895L26.9675 35L26.9815 35.0105L34.9965 43.029L43.0255 35.0035L43.029 35L43.022 34.9965V34.993Z" fill="#FFC500"/>
<path d="M21.406 40.586L13.4855 48.4855L13.496 48.496L35 70L56.511 48.489V48.4855L48.601 40.5755L35 54.18L21.406 40.586Z" fill="#FFC500"/>
<path d="M0 35L7.91 42.91L15.82 35L7.91 27.09L0 35Z" fill="#FFC500"/>
<path d="M54.18 35L62.09 42.91L70 35L62.09 27.09L54.18 35Z" fill="#FFC500"/>
</svg>
