<svg width="70" height="70" viewBox="0 0 70 70" fill="none" xmlns="http://www.w3.org/2000/svg">
<path d="M51.323 33.1724C55.1527 31.2343 57.5901 27.7869 57.0244 22.0581C56.2841 14.2161 49.7783 11.589 41.1621 10.8562V0H34.4597V10.5544C32.7183 10.5544 30.9349 10.5981 29.1494 10.6397V0H22.4469V10.8562C19.9829 10.9306 17.1124 10.8934 9 10.8562V17.9216C14.2904 17.8298 17.0682 17.4929 17.7046 20.8506V50.5756C17.3002 53.2399 15.1456 52.8571 10.3502 52.774L9.00221 60.6575C21.2227 60.6575 22.4513 60.7012 22.4513 60.7012V69.9978H29.1538V60.8303C30.9814 60.874 32.7647 60.874 34.4641 60.874V70H41.1665V60.7034C52.3948 60.0997 59.9016 57.2998 60.9027 46.8307C61.685 38.431 57.6829 34.6817 51.3274 33.1746L51.323 33.1724ZM29.2798 18.3963C33.0652 18.3963 44.9034 17.2326 44.9034 25.0308C44.9034 32.4834 33.0652 31.6215 29.2798 31.6215V18.3963ZM29.2798 52.8155V38.2538C33.8055 38.2538 47.6657 37.0048 47.6657 45.5336C47.6657 53.7627 33.8055 52.8133 29.2798 52.8133V52.8155Z" fill="#FF8F0B"/>
</svg>
