<svg width="70" height="70" viewBox="0 0 70 70" fill="none" xmlns="http://www.w3.org/2000/svg">
<path fill-rule="evenodd" clip-rule="evenodd" d="M51.3439 13.4134L62.8787 1.87866L67.1213 6.1213L55.7437 17.4989C59.8452 22.2502 62.3256 28.4401 62.3256 35.2093C62.3256 50.1852 50.1852 62.3256 35.2093 62.3256C28.4401 62.3256 22.2502 59.8452 17.4989 55.7437L6.1213 67.1213L1.87866 62.8787L13.4134 51.3439C10.0704 46.8353 8.09301 41.2532 8.09301 35.2093C8.09301 20.2334 20.2334 8.09301 35.2093 8.09301C41.2532 8.09301 46.8353 10.0704 51.3439 13.4134ZM47.0409 17.7164C43.6657 15.4291 39.5935 14.093 35.2093 14.093C23.5471 14.093 14.093 23.5471 14.093 35.2093C14.093 39.5935 15.4291 43.6657 17.7164 47.0409L47.0409 17.7164ZM21.7563 51.4863C25.4095 54.509 30.0973 56.3256 35.2093 56.3256C46.8715 56.3256 56.3256 46.8715 56.3256 35.2093C56.3256 30.0973 54.509 25.4095 51.4863 21.7563L21.7563 51.4863Z" fill="white"/>
</svg>
