<svg width="70" height="70" viewBox="0 0 70 70" fill="none" xmlns="http://www.w3.org/2000/svg">
<path d="M19.2865 19.0575L14.7622 14.5332L14.7813 47.2363L14.8355 48.7648C14.8579 49.484 14.9913 50.2956 15.2139 51.1367L51.0627 63.7777L60.0238 59.8074L60.0271 59.7964L19.2865 19.0575Z" fill="#00D2B8"/>
<path d="M15.214 51.1366L15.2161 51.1388C15.214 51.124 15.2063 51.1076 15.2063 51.0923C15.2063 51.1076 15.2085 51.1218 15.214 51.1366ZM60.0238 59.8073L51.0627 63.7776L15.2161 51.1388C15.9008 53.766 17.4168 56.7191 19.0481 58.334L30.7468 69.966L56.759 70L60.0271 59.7964L60.0238 59.8073Z" fill="#55DDCA"/>
<path d="M0.829584 35.5786C-0.328697 36.8151 0.246616 39.3657 2.11146 41.2448L10.1554 49.3555L15.214 51.1366C14.9915 50.2956 14.858 49.484 14.8356 48.7648L14.7815 47.2363L14.7623 14.5332L0.829584 35.5786Z" fill="#0081C6"/>
<path d="M51.3569 14.9534C50.5158 14.7385 49.7092 14.6056 48.978 14.5826L47.3625 14.5269L14.7622 14.5312L60.0314 59.7966H60.0353L64.011 50.8268L51.3569 14.9534Z" fill="#0079B3"/>
<path d="M51.3159 14.9443C51.3334 14.9482 51.3471 14.9531 51.3586 14.9547L51.3569 14.9531C51.3471 14.9482 51.3334 14.9482 51.3159 14.9443ZM58.5478 18.7938C56.905 17.1373 53.9907 15.6318 51.3586 14.9547L64.0111 50.8265L60.0353 59.7963H60.0315L69.7473 56.6933L69.768 30.0561L58.5478 18.7938Z" fill="#00A4E4"/>
<path d="M49.5845 9.92498L41.476 1.87608C39.6007 0.0183431 37.049 -0.559704 35.8158 0.595296L14.7622 14.5308L47.3625 14.5264L48.978 14.5822C49.7092 14.6051 50.5158 14.738 51.3569 14.953L49.5845 9.92498Z" fill="#00D2B8"/>
</svg>
