<svg width="70" height="70" viewBox="0 0 70 70" fill="none" xmlns="http://www.w3.org/2000/svg">
<path d="M35 70C15.6691 70 0 54.3309 0 35C0 15.6691 15.6691 0 35 0C54.3309 0 70 15.6691 70 35C70 54.3309 54.3309 70 35 70ZM23.1262 25.2591L17.7231 49.9428C17.6835 50.094 17.6953 50.2541 17.7567 50.3979C17.8181 50.5416 17.9256 50.6609 18.0622 50.7369L34.6281 61.1166C34.7506 61.1931 34.8819 61.2259 35.0066 61.2259C35.1414 61.2273 35.2736 61.1892 35.3872 61.1166L51.9531 50.7369C52.0893 50.6606 52.1963 50.5412 52.2573 50.3974C52.3183 50.2537 52.3298 50.0938 52.29 49.9428L46.8869 25.2591C46.8663 25.156 46.823 25.0588 46.76 24.9747L35.5819 9.70156C35.5173 9.60968 35.4309 9.53522 35.3305 9.48484C35.2301 9.43445 35.1188 9.40971 35.0066 9.41281C34.8946 9.41007 34.7838 9.43499 34.6838 9.48536C34.5838 9.53573 34.4978 9.60999 34.4334 9.70156L23.2553 24.9769C23.1916 25.0608 23.1474 25.158 23.1262 25.2613V25.2591ZM20.0747 45.7494L23.94 28.0963L26.1494 35.0328L20.0747 45.7494ZM19.6022 49.4244L26.7269 36.8506L30.73 49.4222H19.6L19.6022 49.4244ZM20.8381 50.8244H31.1763L33.7531 58.9159L20.8381 50.8222V50.8244ZM27.0878 33.3725L24.5875 25.5238L34.3 12.2566V20.6478L27.0878 33.3725ZM35.0066 58.2422L32.6441 50.8222H37.3691L35.0066 58.2422ZM36.2622 58.9159L38.8391 50.8222H49.1772L36.2622 58.9159ZM46.0753 28.0963L49.9384 45.7494L43.8659 35.0328L46.0753 28.0984V28.0963ZM42.9253 33.3725L35.7153 20.65V12.2566L45.4278 25.5238L42.9253 33.3725ZM50.4109 49.4222H39.2875L43.2906 36.8506L50.4131 49.4222H50.4109ZM35.0066 22.2381L42.3478 35.1903L37.8153 49.4222H32.2L27.6675 35.1903L35.0066 22.2381Z" fill="white"/>
</svg>
