<svg width="70" height="70" viewBox="0 0 70 70" fill="none" xmlns="http://www.w3.org/2000/svg">
<path d="M64.48 3H6.52C5.12612 3 4 4.144 4 5.56V64.44C4 65.856 5.12612 67 6.52 67H64.48C65.8739 67 67 65.856 67 64.44V5.56C67 4.144 65.8739 3 64.48 3ZM57.2035 21.68H52.1714C48.226 21.68 47.4621 23.584 47.4621 26.384V32.552H56.8806L55.6521 42.208H47.4621V67H37.642V42.216H29.4284V32.552H37.642V25.432C37.642 17.168 42.6111 12.664 49.8719 12.664C53.3526 12.664 56.3372 12.928 57.2114 13.048V21.68H57.2035Z" fill="#24549C"/>
</svg>
