<svg width="70" height="70" viewBox="0 0 70 70" fill="none" xmlns="http://www.w3.org/2000/svg">
<path d="M39.9946 23.8071L40.1483 23.909C41.9546 25.0949 43.2498 26.7214 44.1018 28.6866C44.3063 28.9915 44.17 29.161 43.761 29.2625L43.0688 29.4387C41.5037 29.8395 40.2619 30.1766 38.7174 30.5774L37.8365 30.8055C37.5194 30.8835 37.4319 30.8508 37.0944 30.4688L37.0469 30.4146C36.5657 29.8726 36.2054 29.5105 35.568 29.1872L35.4451 29.127C33.2979 28.0768 31.219 28.3816 29.2763 29.6354C26.9587 31.1262 25.7658 33.3286 25.7999 36.0732C25.834 38.7837 27.7084 41.02 30.401 41.3927C32.7185 41.6977 34.6611 40.8845 36.1948 39.1565C36.5016 38.7837 36.7742 38.3772 37.1149 37.9028H30.5374C29.8217 37.9028 29.6513 37.4624 29.8899 36.8864L30.008 36.6098C30.4461 35.5966 31.1254 34.1404 31.5666 33.3077L31.6629 33.1284C31.7807 32.9254 32.02 32.6509 32.4801 32.6509H43.4481C43.9407 31.0994 44.74 29.6333 45.806 28.2461C48.294 24.9934 51.2932 23.2991 55.3489 22.5877C58.8253 21.9777 62.0972 22.3165 65.0622 24.3157C67.7548 26.1453 69.4248 28.619 69.8679 31.8716C70.4472 36.4459 69.118 40.173 65.9484 43.358C63.699 45.6282 60.9384 47.0513 57.7687 47.695C56.8486 47.8645 55.9284 47.8983 55.0423 48C51.9408 47.9322 49.112 47.0513 46.7262 45.0183C45.0483 43.5762 43.8925 41.804 43.3181 39.7407C42.9151 40.5493 42.4358 41.3179 41.8867 42.0364C39.4327 45.2555 36.2291 47.2545 32.1734 47.7968C28.8334 48.2372 25.7319 47.5933 23.0053 45.5603C20.4833 43.6629 19.0518 41.1555 18.6768 38.0385C18.2339 34.3451 19.3245 31.0245 21.5739 28.1106C23.9938 24.9594 27.1974 22.9604 31.1168 22.2489C34.2612 21.6834 37.2742 22.0321 39.9948 23.8071H39.9946ZM56.2077 28.6624L56.0986 28.6866C52.929 29.3982 50.8841 31.3972 50.1344 34.5822C49.5208 37.2251 50.8159 39.9019 53.2699 40.9862C55.1443 41.7994 57.0188 41.6977 58.8251 40.7828C61.5177 39.3937 62.9832 37.2251 63.1536 34.3112C63.1195 33.8708 63.1195 33.5318 63.0512 33.193C62.4448 29.8764 59.4058 27.9839 56.2077 28.6624ZM15.9162 34.8533C16.0525 34.8533 16.1207 34.9549 16.1207 35.0904L16.0525 35.9037C16.0525 36.0392 15.9162 36.1409 15.8139 36.1409L8.38411 36.107C8.24781 36.107 8.21376 36.0053 8.28185 35.9037L8.759 35.0566C8.82722 34.9549 8.96353 34.8533 9.09984 34.8533H15.9162ZM16.666 31.736C16.8023 31.736 16.8705 31.8377 16.8365 31.9394L16.5637 32.7526C16.5297 32.8881 16.3934 32.9558 16.257 32.9558L0.136303 32.9898C-5.06056e-06 32.9898 -0.0340479 32.922 0.0340378 32.8203L0.749759 31.9055C0.817981 31.8039 0.988332 31.736 1.12464 31.736H16.666ZM18.4383 28.6188C18.5746 28.6188 18.6086 28.7205 18.5405 28.8222L17.9611 29.7031C17.8929 29.8047 17.7225 29.9064 17.6203 29.9064L5.28279 29.8724C5.14635 29.8724 5.11231 29.8047 5.18039 29.7031L5.89611 28.7883C5.96434 28.6866 6.13469 28.6188 6.27099 28.6188H18.4383Z" fill="#00ACD7"/>
</svg>
