<svg width="70" height="70" viewBox="0 0 70 70" fill="none" xmlns="http://www.w3.org/2000/svg">
<path d="M69.9999 51.3839C69.9999 51.3839 59.3378 49.8043 53.7037 49.3512C48.293 48.9165 41.8814 48.6655 35.003 48.6655C28.1245 48.6655 21.7129 48.9165 16.3038 49.3512C10.6681 49.8104 0.00756836 52.0022 0.00756836 52.0022V54.7573C0.00756836 57.2062 15.6762 59.196 35.003 59.196C54.3297 59.196 69.9984 57.2062 69.9984 54.7573L69.9999 51.3839Z" fill="#F0D50C"/>
<path d="M24.2431 14.8411C18.0067 17.0632 12.6104 21.1603 8.79456 26.5705C4.97867 31.9807 2.93004 38.4389 2.92969 45.0595V49.6023C7.48992 48.5128 12.1395 47.8386 16.8213 47.588C16.7897 46.7166 16.7734 45.8385 16.7723 44.9538C16.7769 33.0336 19.6544 22.3073 24.2431 14.8411Z" fill="#F0D50C"/>
<path d="M67.0752 45.0594C67.0861 37.6157 64.4968 30.4019 59.7544 24.6643C61.8103 31.2307 62.8347 38.0763 62.7911 44.9569C62.7911 46.2089 62.7589 47.4467 62.6946 48.6701C64.1541 48.8947 65.5997 49.2013 67.0247 49.5884L67.0752 45.0594Z" fill="#FFF04D"/>
<path d="M67.0752 45.0594C67.0861 37.6157 64.4968 30.4019 59.7544 24.6643C61.8103 31.2307 62.8347 38.0763 62.7911 44.9569C62.7911 46.2089 62.7589 47.4467 62.6946 48.6701C64.1541 48.8947 65.5997 49.2013 67.0247 49.5884L67.0752 45.0594Z" fill="#FFEA00"/>
<path d="M59.7542 24.6628C55.5597 19.5782 49.9016 15.908 43.5487 14.1508C37.1957 12.3936 30.4558 12.6345 24.2446 14.841C19.6528 22.3072 16.7769 33.0336 16.7769 44.9553C16.7769 45.84 16.7932 46.7181 16.8258 47.5895C21.6013 47.2206 27.1297 46.9925 33.0501 46.9512C33.0501 46.9512 34.3955 46.9512 35.0062 46.9512C44.2666 46.8401 53.5225 47.4167 62.6976 48.6762C62.7598 47.4517 62.792 46.214 62.794 44.963C62.8375 38.0797 61.812 31.2314 59.7542 24.6628Z" fill="#FFF04D"/>
<path d="M47.9044 26.7843L45.8718 14.0804C45.801 13.6225 45.6019 13.194 45.2973 12.8448C44.9928 12.4956 44.5954 12.2399 44.1514 12.1075C38.2289 10.3695 31.9318 10.3695 26.0093 12.1075C25.5656 12.2401 25.1686 12.4959 24.8643 12.8451C24.5601 13.1944 24.3611 13.6227 24.2905 14.0804L22.2563 26.7843" fill="#FFF04D"/>
<path d="M35.0062 46.6819C34.3939 46.6819 33.7863 46.6819 33.1833 46.6819H33.1159H33.0485C14.631 46.8105 0.00924958 48.7451 0.00924958 51.1129V54.5445C-0.0205894 54.7456 0.0223007 54.9507 0.130181 55.1231C1.06558 54.4205 2.14075 53.9268 3.28319 53.6751C6.19277 52.9672 9.15002 52.472 12.1315 52.1935C12.9685 52.1017 13.8155 52.1894 14.616 52.4506C15.4165 52.7119 16.1521 53.1409 16.7738 53.7088C19.0765 55.8169 22.0854 56.9861 25.2074 56.9858H44.7989C47.9208 56.9859 50.9296 55.8168 53.2324 53.7088C53.854 53.1402 54.5898 52.7108 55.3907 52.4492C56.1915 52.1876 57.0388 52.0999 57.8762 52.192C60.8572 52.4704 63.814 52.9656 66.723 53.6736C67.805 53.8817 68.8268 54.3288 69.7138 54.9823C69.7643 55.0328 69.8225 55.0771 69.8669 55.1231C69.9755 54.9499 70.0189 54.7437 69.9893 54.5414V51.1098C70 48.6686 54.3314 46.6819 35.0062 46.6819Z" fill="#FFF04D"/>
<path d="M42.3776 36.4912L34.9971 41.034V46.9344L42.3776 36.4912Z" fill="#6E6F70"/>
<path d="M35.0048 46.9344V41.034L27.6243 36.4912L35.0048 46.9344Z" fill="#0A0A0A"/>
<path d="M27.6243 33.7959L35.0048 38.0632V21.8589L27.6243 33.7959Z" fill="#0A0A0A"/>
<path d="M42.3776 33.796L34.9971 21.8574V29.5272V38.0618L42.3776 33.7945V33.796Z" fill="#6E6F70"/>
</svg>
