<svg width="36" height="40" viewBox="0 0 36 40" fill="none" xmlns="http://www.w3.org/2000/svg">
<path d="M9.93257 2.40018V7.52814C5.79939 9.07686 2.34889 12.0261 0.154541 15.7965V0.494507H8.0308C9.08019 0.494507 9.93257 1.34689 9.93257 2.40018Z" fill="#3E8445"/>
<path d="M23.5239 8.89171V13.8051C23.5239 16.5144 21.3276 18.7107 18.6183 18.7107H17.0188C13.1178 18.7107 9.95206 21.8686 9.94426 25.7736V39.5054H2.05825C1.00496 39.5054 0.154525 38.653 0.154525 37.6016V25.9706C0.146723 25.7677 0.142822 25.5649 0.142822 25.3601C0.142822 16.2589 7.5217 8.87805 16.6248 8.87805C16.8296 8.87805 17.0325 8.88195 17.2373 8.88976H23.5239V8.89171Z" fill="#3E8445"/>
<path d="M26.0653 37.5995V32.4716C30.2004 30.9209 33.6509 27.9717 35.8433 24.2013V39.5052H27.9671C26.9196 39.5052 26.0653 38.6528 26.0653 37.5995Z" fill="#3E8445"/>
<path d="M12.4761 31.1081V26.1947C12.4761 23.4855 14.6724 21.2892 17.3817 21.2892H18.9811C22.8822 21.2892 26.0479 18.1312 26.0557 14.2263V0.494507H33.9417C34.995 0.494507 35.8454 1.34689 35.8454 2.39823V14.0293C35.8552 14.2321 35.8571 14.435 35.8571 14.6417C35.8571 23.7429 28.4783 31.1238 19.3751 31.1238C19.1703 31.1238 18.9675 31.1199 18.7626 31.112H12.4761V31.1081Z" fill="#3E8445"/>
</svg>
