<svg width="70" height="70" viewBox="0 0 70 70" fill="none" xmlns="http://www.w3.org/2000/svg">
<path d="M26.8339 52.1558C26.8339 52.1558 24.4624 53.5089 28.5217 53.9667C33.4395 54.5171 35.9528 54.4383 41.3724 53.4318C41.3724 53.4318 42.7973 54.3084 44.787 55.0677C32.6381 60.1764 17.2914 54.7717 26.8339 52.1558Z" fill="#5382A1"/>
<path d="M25.3494 45.4888C25.3494 45.4888 22.6895 47.4207 26.7519 47.8329C32.0052 48.3646 36.1539 48.4081 43.3327 47.0519C43.3327 47.0519 44.3257 48.0395 45.887 48.5797C31.1981 52.794 14.8374 48.912 25.3494 45.4888Z" fill="#5382A1"/>
<path d="M37.8646 34.1802C40.8582 37.5616 37.0781 40.6046 37.0781 40.6046C37.0781 40.6046 44.6791 36.7547 41.1883 31.9336C37.928 27.4379 35.4277 25.2038 48.963 17.502C48.963 17.502 27.7171 22.7081 37.8646 34.18" fill="#E76F00"/>
<path d="M53.9327 57.0868C53.9327 57.0868 55.6878 58.5055 51.9999 59.6031C44.9874 61.6875 22.8129 62.3169 16.6528 59.6862C14.4385 58.7412 18.5911 57.4295 19.8972 57.1541C21.2595 56.8643 22.038 56.9184 22.038 56.9184C19.5754 55.2162 6.12078 60.2606 15.2038 61.705C39.9743 65.6464 60.3578 59.9303 53.9327 57.0868Z" fill="#5382A1"/>
<path d="M27.9743 38.5817C27.9743 38.5817 16.6951 41.2103 23.9802 42.1646C27.0561 42.5687 33.1879 42.4774 38.8997 42.0077C43.5676 41.6216 48.2547 40.8001 48.2547 40.8001C48.2547 40.8001 46.6088 41.4917 45.418 42.2895C33.964 45.2452 11.8369 43.8702 18.207 40.8468C23.5942 38.2919 27.9745 38.5817 27.9745 38.5817" fill="#5382A1"/>
<path d="M48.2081 49.6786C59.8518 43.7422 54.4682 38.0375 50.7106 38.8062C49.7895 38.9941 49.3789 39.157 49.3789 39.157C49.3789 39.157 49.7209 38.6316 50.3738 38.4042C57.8075 35.8399 63.5246 45.967 47.9741 49.9778C47.9741 49.978 48.1543 49.82 48.2081 49.6786Z" fill="#5382A1"/>
<path d="M41.1882 5.06561C41.1882 5.06561 47.6366 11.3948 35.0721 21.1268C24.9969 28.9337 32.7747 33.3849 35.068 38.4707C29.1868 33.2645 24.8707 28.6814 27.7664 24.416C32.0162 18.1543 43.7899 15.1186 41.1882 5.06543" fill="#E76F00"/>
<path d="M29.1184 65.7647C40.2948 66.4667 57.4573 65.3752 57.8638 60.1865C57.8638 60.1865 57.0825 62.1537 48.6271 63.7157C39.0879 65.4769 27.3226 65.2714 20.3445 64.1425C20.3447 64.1425 21.773 65.3026 29.1186 65.7647" fill="#5382A1"/>
</svg>
