<svg width="26" height="26" viewBox="0 0 26 26" fill="none" xmlns="http://www.w3.org/2000/svg">
<path d="M13 0C9.55219 0 6.24558 1.36964 3.80761 3.80761C1.36964 6.24558 0 9.55219 0 13C0 16.4478 1.36964 19.7544 3.80761 22.1924C6.24558 24.6304 9.55219 26 13 26C16.4478 26 19.7544 24.6304 22.1924 22.1924C24.6304 19.7544 26 16.4478 26 13C26 9.55219 24.6304 6.24558 22.1924 3.80761C19.7544 1.36964 16.4478 0 13 0V0ZM1.60333 13.9822H5.22889C5.28667 15.2967 5.47011 16.6024 5.77778 17.8822H2.65778C2.07596 16.6557 1.71883 15.3348 1.60333 13.9822ZM13.9822 6.18222V1.71889C15.3742 2.24788 16.518 3.27834 17.1889 4.60778C17.485 5.109 17.7464 5.63044 17.9689 6.16778L13.9822 6.18222ZM18.6333 8.13222C18.9684 9.40767 19.1678 10.7149 19.2256 12.0322H13.9822V8.13222H18.6333ZM12.0178 1.71889V6.18222H8.03111C8.25393 5.64445 8.51459 5.12314 8.81111 4.62222C9.47912 3.28734 10.6233 2.2514 12.0178 1.71889ZM12.0178 8.13222V12.0322H6.78889C6.84667 10.7149 7.046 9.40767 7.38111 8.13222H12.0178ZM5.22889 12.0178H1.60333C1.71883 10.6652 2.07596 9.34428 2.65778 8.11778H5.77778C5.46952 9.39704 5.2857 10.7031 5.22889 12.0178ZM6.78889 13.9822H12.0178V17.8822H7.38111C7.04605 16.6069 6.84753 15.2995 6.78889 13.9822ZM12.0322 19.76V24.2233C10.6402 23.6943 9.49642 22.6639 8.82556 21.3344C8.52903 20.8335 8.26838 20.3122 8.04556 19.7744L12.0322 19.76ZM13.9822 24.2233V19.8322H17.9689C17.7461 20.37 17.4854 20.8913 17.1889 21.3922C16.518 22.7217 15.3742 23.7521 13.9822 24.2811V24.2233ZM13.9822 17.81V13.91H19.2111C19.1525 15.2273 18.9539 16.5347 18.6189 17.81H13.9822ZM20.7856 13.91H24.4111C24.2956 15.2626 23.9385 16.5835 23.3567 17.81H20.2222C20.5256 16.5533 20.709 15.2721 20.7711 13.9822L20.7856 13.91ZM20.7856 11.96C20.7194 10.6691 20.5308 9.38743 20.2222 8.13222H23.3422C23.9243 9.36 24.2811 10.6802 24.3967 12.0322L20.7856 11.96ZM22.23 6.18222H19.6444C19.1766 4.86821 18.4985 3.63888 17.6367 2.54222C19.4341 3.34906 20.9954 4.60207 22.1722 6.18222H22.23ZM8.36333 2.54222C7.50146 3.63888 6.82338 4.86821 6.35556 6.18222H3.82778C5.0046 4.60207 6.56589 3.34906 8.36333 2.54222ZM3.81333 19.8756H6.35556C6.82338 21.1896 7.50146 22.4189 8.36333 23.5156C6.56092 22.6966 4.99915 21.4283 3.82778 19.8322L3.81333 19.8756ZM17.6222 23.5156C18.4841 22.4189 19.1622 21.1896 19.63 19.8756H22.1722C20.9882 21.4345 19.4275 22.6672 17.6367 23.4578L17.6222 23.5156Z" fill="white"/>
</svg>
