<svg width="70" height="70" viewBox="0 0 70 70" fill="none" xmlns="http://www.w3.org/2000/svg">
<path fill-rule="evenodd" clip-rule="evenodd" d="M1.49426 49.6905L5.9088 35.9106C5.94609 35.7942 5.95127 35.6699 5.92381 35.5508L1.01737 14.2764C0.989966 14.1576 0.995064 14.0336 1.03213 13.9175L4.04512 4.47356C4.16411 4.10059 4.57309 3.90484 4.93866 4.04588L25.5816 12.0101C25.6599 12.0403 25.743 12.0558 25.8268 12.0558H44.1732C44.257 12.0558 44.3401 12.0403 44.4184 12.0101L65.0613 4.04588C65.4269 3.90484 65.8359 4.10059 65.9549 4.47356L68.9679 13.9175C69.0049 14.0336 69.01 14.1576 68.9826 14.2764L64.0762 35.5508C64.0487 35.6699 64.0539 35.7942 64.0912 35.9106L68.5057 49.6905C68.5481 49.8227 68.5489 49.9648 68.508 50.0975L64.232 63.9791C64.1224 64.3348 63.7467 64.5364 63.3893 64.4312L49.7208 60.4094C49.5206 60.3504 49.3044 60.3866 49.1343 60.5074L40.1673 66.8743C40.0521 66.9561 39.9143 67 39.773 67H30.227C30.0857 67 29.9479 66.9561 29.8327 66.8743L20.8657 60.5074C20.6956 60.3866 20.4794 60.3504 20.2792 60.4094L6.61072 64.4312C6.25327 64.5364 5.87762 64.3348 5.76804 63.9791L1.49197 50.0975C1.45109 49.9648 1.45188 49.8227 1.49426 49.6905ZM7.12147 7.21675L29.2498 22.5191C29.6269 22.7799 29.643 23.3311 29.2817 23.6134L21.2705 29.8714C21.1998 29.9267 21.1188 29.9674 21.0323 29.9913L8.66583 33.3988C8.30252 33.4989 7.92695 33.285 7.82817 32.9217L3.07665 15.4473C3.03792 15.3048 3.04666 15.1537 3.10153 15.0167L6.10231 7.52317C6.26465 7.11777 6.76207 6.96822 7.12147 7.21675ZM29.6533 56.4239L29.4814 59.5996C29.4604 59.9889 29.7707 60.3161 30.1609 60.3161H39.8391C40.2293 60.3161 40.5396 59.9889 40.5186 59.5996L40.3467 56.4239C40.3364 56.2331 40.2462 56.0555 40.0981 55.9345L39.2709 55.2585C39.1494 55.1591 38.9971 55.1049 38.84 55.1049H31.16C31.0029 55.1049 30.8506 55.1591 30.7291 55.2585L29.9019 55.9345C29.7538 56.0555 29.6636 56.2331 29.6533 56.4239ZM27.5834 41.7365L29.2805 44.9857C29.5565 45.514 29.0667 46.1161 28.4925 45.9543L22.9769 44.4004C22.3638 44.2276 22.3031 43.3834 22.8852 43.125L26.7037 41.4298C27.032 41.2841 27.4172 41.4184 27.5834 41.7365ZM62.8785 7.21675L40.7502 22.5191C40.3731 22.7799 40.357 23.3311 40.7184 23.6134L48.7295 29.8714C48.8002 29.9267 48.8812 29.9674 48.9677 29.9913L61.3342 33.3988C61.6975 33.4989 62.0731 33.285 62.1718 32.9217L66.9233 15.4473C66.9621 15.3048 66.9533 15.1537 66.8985 15.0167L63.8977 7.52317C63.7354 7.11777 63.2379 6.96822 62.8785 7.21675ZM42.4166 41.7365L40.7195 44.9857C40.4435 45.514 40.9333 46.1161 41.5075 45.9543L47.0231 44.4004C47.6362 44.2276 47.6969 43.3834 47.1148 43.125L43.2963 41.4298C42.968 41.2841 42.5828 41.4184 42.4166 41.7365Z" fill="#E47D05"/>
</svg>
