<svg width="70" height="70" viewBox="0 0 70 70" fill="none" xmlns="http://www.w3.org/2000/svg">
<g clip-path="url(#clip0)">
<path fill-rule="evenodd" clip-rule="evenodd" d="M36.5264 70.1586L34.6349 69.5121C34.6349 69.5121 34.8659 59.8691 31.4049 59.1771C29.0984 56.5006 31.7749 -54.3294 40.0799 58.8076C40.0799 58.8076 37.2189 60.2376 36.7114 62.6836C36.1574 65.0831 36.5264 70.1586 36.5264 70.1586Z" fill="white"/>
<path fill-rule="evenodd" clip-rule="evenodd" d="M36.5264 70.1586L34.6349 69.5121C34.6349 69.5121 34.8659 59.8691 31.4049 59.1771C29.0984 56.5006 31.7749 -54.3294 40.0799 58.8076C40.0799 58.8076 37.2189 60.2376 36.7114 62.6836C36.1574 65.0831 36.5264 70.1586 36.5264 70.1586Z" fill="#A6A385"/>
<path fill-rule="evenodd" clip-rule="evenodd" d="M37.542 60.8381C37.542 60.8381 54.107 49.9486 50.2305 27.2931C46.4935 10.8216 37.6805 5.42312 36.7115 3.34662C35.6505 1.87012 34.635 -0.713379 34.635 -0.713379L35.3275 45.1036C35.3275 45.1501 33.897 59.1306 37.5425 60.8386" fill="white"/>
<path fill-rule="evenodd" clip-rule="evenodd" d="M37.542 60.8381C37.542 60.8381 54.107 49.9486 50.2305 27.2931C46.4935 10.8216 37.6805 5.42312 36.7115 3.34662C35.6505 1.87012 34.635 -0.713379 34.635 -0.713379L35.3275 45.1036C35.3275 45.1501 33.897 59.1306 37.5425 60.8386" fill="#499D4A"/>
<path fill-rule="evenodd" clip-rule="evenodd" d="M33.6665 61.4376C33.6665 61.4376 18.1165 50.8251 19.0395 32.1386C19.916 13.4516 30.8975 4.26956 33.02 2.60856C34.4045 1.13206 34.4505 0.578063 34.543 -0.898438C35.512 1.17806 35.3275 30.1546 35.4655 33.5686C35.8805 46.7186 34.7275 58.9466 33.6665 61.4376Z" fill="white"/>
<path fill-rule="evenodd" clip-rule="evenodd" d="M33.6665 61.4376C33.6665 61.4376 18.1165 50.8251 19.0395 32.1386C19.916 13.4516 30.8975 4.26956 33.02 2.60856C34.4045 1.13206 34.4505 0.578063 34.543 -0.898438C35.512 1.17806 35.3275 30.1546 35.4655 33.5686C35.8805 46.7186 34.7275 58.9466 33.6665 61.4376Z" fill="#58AA50"/>
</g>
<defs>
<clipPath id="clip0">
<rect width="70" height="70" fill="white"/>
</clipPath>
</defs>
</svg>
