<svg width="70" height="70" viewBox="0 0 70 70" fill="none" xmlns="http://www.w3.org/2000/svg">
<path d="M16.5168 24.954H29.7196V25.9978H17.7274V33.8525H29.0044V34.8963H17.7274V43.5201H29.8571V44.5638H16.5168V24.954ZM30.9022 24.954H32.3052L38.5215 33.5778L44.8752 24.954L53.5173 14L39.3192 34.4842L46.6355 44.5638H45.1776L38.5215 35.3906L31.8378 44.5638H30.4074L37.7787 34.4842L30.9027 24.954H30.9022ZM47.1583 25.9978V24.954H62.2035V25.9978H55.2724V44.5634H54.0619V25.9978H47.1588H47.1583ZM0 24.954H1.51295L22.3734 56L13.7526 44.5638L1.26506 26.4371L1.21008 44.5638H0V24.954ZM62.0821 43.2049C61.8342 43.2049 61.6489 43.0144 61.6489 42.7684C61.6489 42.522 61.8342 42.3315 62.0817 42.3315C62.3319 42.3315 62.5144 42.522 62.5144 42.7684C62.5144 43.0144 62.3319 43.2049 62.0817 43.2049H62.0821ZM63.2709 42.0558H63.9188C63.9278 42.4048 64.1842 42.6391 64.5606 42.6391C64.9815 42.6391 65.2199 42.3874 65.2199 41.9152V38.9255H65.8792V41.918C65.8792 42.7684 65.3848 43.2581 64.5663 43.2581C63.7984 43.2581 63.2714 42.783 63.2714 42.0558H63.2709ZM66.7414 42.0182H67.395C67.4509 42.4194 67.8453 42.6744 68.4136 42.6744C68.943 42.6744 69.3317 42.4015 69.3317 42.0267C69.3317 41.7044 69.0847 41.5107 68.5221 41.379L67.9747 41.2472C67.2068 41.0685 66.8561 40.6988 66.8561 40.0774C66.8561 39.3239 67.4742 38.8225 68.4013 38.8225C69.2639 38.8225 69.8943 39.3239 69.9322 40.036H69.2904C69.2288 39.6466 68.8876 39.4029 68.3927 39.4029C67.8713 39.4029 67.5244 39.6522 67.5244 40.0332C67.5244 40.3352 67.7481 40.5083 68.3017 40.6372L68.7695 40.7515C69.6407 40.9537 70 41.3056 70 41.9415C70 42.7506 69.3696 43.2581 68.3633 43.2581C67.4215 43.2581 66.7883 42.7741 66.7414 42.0177V42.0182Z" fill="#FCFCFC"/>
</svg>
