<svg width="70" height="70" viewBox="0 0 70 70" fill="none" xmlns="http://www.w3.org/2000/svg">
<path d="M35 69.9998C34.032 69.9998 33.1285 69.7425 32.2895 69.2924L23.7058 64.212C22.4151 63.5046 23.0604 63.2474 23.4477 63.1188C25.1901 62.54 25.5128 62.4114 27.3198 61.3823C27.5136 61.2537 27.7718 61.318 27.9651 61.4466L34.5483 65.3695C34.8064 65.4981 35.1291 65.4981 35.3227 65.3695L61.0736 50.5143C61.3317 50.3857 61.4608 50.1285 61.4608 49.8069V20.1604C61.4608 19.8389 61.3317 19.5817 61.0736 19.4531L35.3227 4.66194C35.0645 4.53333 34.7419 4.53333 34.5483 4.66194L8.79736 19.4533C8.53922 19.5819 8.41015 19.9034 8.41015 20.1607V49.8069C8.41015 50.0642 8.53922 50.3857 8.79736 50.5143L15.8322 54.5656C19.6401 56.4948 22.0276 54.2441 22.0276 51.9933V22.7327C22.0276 22.3468 22.3506 21.961 22.8023 21.961H26.0939C26.4811 21.961 26.8683 22.2825 26.8683 22.7327V51.9931C26.8683 57.0735 24.093 60.0316 19.2526 60.0316C17.7683 60.0316 16.6066 60.0316 13.3153 58.4239L6.53862 54.5656C4.86069 53.6007 3.82812 51.8002 3.82812 49.871V20.225C3.82812 18.2958 4.86069 16.4952 6.53862 15.5304L32.2895 0.675213C33.9029 -0.225071 36.0971 -0.225071 37.7105 0.675213L63.4614 15.5304C65.1393 16.495 66.1719 18.2955 66.1719 20.225V49.8713C66.1719 51.8004 65.1393 53.601 63.4614 54.5656L37.7105 69.4212C36.8715 69.8071 35.9035 70 35 70V69.9998ZM42.9381 49.6138C31.6439 49.6138 29.3206 44.4693 29.3206 40.0962C29.3206 39.7104 29.6433 39.3246 30.0951 39.3246H33.4509C33.8381 39.3246 34.161 39.5818 34.161 39.9676C34.6773 43.3759 36.1616 45.0481 43.0026 45.0481C48.4239 45.0481 50.7474 43.8262 50.7474 40.9325C50.7474 39.2603 50.102 38.0385 41.6474 37.2022C34.6128 36.4949 30.2241 34.9515 30.2241 29.3569C30.2241 24.1476 34.6125 21.0609 41.9701 21.0609C50.2309 21.0609 54.2969 23.8904 54.8131 30.064C54.8131 30.2569 54.7486 30.4499 54.6195 30.6428C54.4905 30.7714 54.2968 30.9 54.1032 30.9H50.7474C50.4245 30.9 50.102 30.6428 50.0373 30.3213C49.2628 26.7844 47.2622 25.6269 41.9701 25.6269C36.0328 25.6269 35.3227 27.6847 35.3227 29.228C35.3227 31.0932 36.1616 31.6717 44.1643 32.7006C52.1026 33.7295 55.8457 35.2088 55.8457 40.7393C55.7812 46.3985 51.1346 49.6138 42.9381 49.6138Z" fill="#539E43"/>
</svg>
