<svg width="70" height="70" viewBox="0 0 70 70" fill="none" xmlns="http://www.w3.org/2000/svg">
<path fill-rule="evenodd" clip-rule="evenodd" d="M21.2983 59.8681C21.2464 59.775 21.2002 59.6788 21.1599 59.58C20.8804 58.9247 20.7943 58.2013 20.9122 57.4975H4.37304L28.9518 13.6747L37.0209 28.046L39.3607 23.8514L32.3268 11.2966C32.13 10.9348 30.9419 9 28.8935 9C27.968 9 26.6412 9.40614 25.5625 11.3263L0.663036 55.6807C0.451668 56.0647 -0.576183 58.081 0.444286 59.8681C0.91077 60.6804 1.90225 61.6478 4.08893 61.6478H24.9429C22.7707 61.6478 21.7648 60.6951 21.2983 59.8681Z" fill="#01C58E"/>
<path fill-rule="evenodd" clip-rule="evenodd" d="M69.2459 55.6807L48.7857 19.1617C48.5743 18.7778 47.3933 16.8354 45.3376 16.8354C44.4121 16.8354 43.0856 17.2344 42.0066 19.1542L39.3608 23.8514L41.7151 28.0457L45.3598 21.5104L65.6016 57.4975H57.9043C58.0027 58.0923 57.9475 58.7029 57.7438 59.27C57.7009 59.3951 57.6473 59.5162 57.5835 59.6318L57.5179 59.7648C56.483 61.5517 54.2449 61.6478 53.8079 61.6478H65.8493C66.2939 61.6478 68.5243 61.552 69.5596 59.7648C70.0189 58.9523 70.3468 57.5862 69.2459 55.6807Z" fill="#108775"/>
<path fill-rule="evenodd" clip-rule="evenodd" d="M57.5178 59.765L57.5834 59.632C57.6472 59.5162 57.701 59.3951 57.7437 59.2702C57.9474 58.7031 58.0026 58.0928 57.9042 57.4977C57.7907 56.856 57.5635 56.2405 57.2334 55.6809L41.7295 28.0462L39.3608 23.8516L37.0065 28.0459L21.5097 55.6809C21.2089 56.2472 21.0067 56.8618 20.9122 57.4977C20.7875 58.1994 20.8659 58.9227 21.1381 59.5802C21.1783 59.6791 21.2245 59.7752 21.2764 59.8683C21.7429 60.6806 22.7344 61.648 24.9211 61.648H53.7859C54.245 61.648 56.4829 61.5521 57.5178 59.765ZM39.3608 32.2408L53.5308 57.4977H25.1981L39.3608 32.2408Z" fill="#2F495E"/>
</svg>
