<svg width="70" height="70" viewBox="0 0 70 70" fill="none" xmlns="http://www.w3.org/2000/svg">
<path fill-rule="evenodd" clip-rule="evenodd" d="M35.4444 9.33333C25.9945 9.33333 18.3333 16.9947 18.3333 26.4459C18.3333 28.7537 18.7881 30.9461 19.6096 32.9452C20.3792 34.8183 19.4847 36.9607 17.6116 37.7303C15.7386 38.5 13.5962 37.6055 12.8265 35.7324C11.6481 32.8643 11 29.7262 11 26.4459C11 12.945 21.9439 2 35.4444 2C48.945 2 59.8889 12.945 59.8889 26.4459C59.8889 39.8799 49.0531 50.7833 35.6449 50.891C31.9808 51.3139 29.5614 54.0025 27.913 57.4081C27.1036 59.0804 26.5825 60.7375 26.2633 61.9626C26.1055 62.5682 25.9999 63.0568 25.9326 63.3823C25.9239 63.4241 25.9134 63.476 25.9024 63.53C25.8811 63.6341 25.8582 63.7463 25.8443 63.8104C25.8372 63.8433 25.8247 63.8998 25.8088 63.9638L25.8083 63.9658C25.8025 63.9896 25.7525 64.1967 25.6608 64.433C25.6318 64.5076 25.5745 64.6486 25.4856 64.8175C25.4274 64.928 25.2117 65.3367 24.7925 65.7432C24.4335 66.0912 22.9813 67.2849 20.9824 66.5556C19.4628 66.0012 18.9366 64.7218 18.8562 64.5265C18.8546 64.5224 18.8531 64.5188 18.8518 64.5157C18.698 64.1453 18.642 63.8347 18.623 63.7229C18.598 63.5758 18.5869 63.4562 18.5815 63.3872C18.5708 63.2494 18.5702 63.1395 18.5702 63.0915V62.6903L26.6476 26.2169C27.0855 24.2397 29.0432 22.9919 31.0204 23.4298C32.9975 23.8676 34.2454 25.8254 33.8075 27.8025L30.0086 44.9562C31.5006 44.2529 33.187 43.7605 35.0899 43.5757L35.2668 43.5585H35.4444C44.8944 43.5585 52.5556 35.8972 52.5556 26.4459C52.5556 16.9947 44.8944 9.33333 35.4444 9.33333Z" fill="white"/>
<path d="M45.2221 63.1111C45.2221 65.8111 43.0333 67.9999 40.3332 67.9999C37.6332 67.9999 35.4443 65.8111 35.4443 63.1111C35.4443 60.411 37.6332 58.2222 40.3332 58.2222C43.0333 58.2222 45.2221 60.411 45.2221 63.1111Z" fill="#FB34FF"/>
</svg>
