<svg width="46" height="38" viewBox="0 0 46 38" fill="none" xmlns="http://www.w3.org/2000/svg">
<path d="M34.2757 11.6367C33.4585 11.1564 32.3964 11.1564 31.4977 11.6367L25.1244 15.3183L20.7939 17.7195L14.4207 21.4011C13.6036 21.8813 12.5414 21.8813 11.6426 21.4011L6.57673 18.5197C5.75965 18.0395 5.1877 17.1592 5.1877 16.1987V10.5161C5.1877 9.55571 5.67795 8.67531 6.57673 8.1951L11.5609 5.39383C12.378 4.91361 13.4402 4.91361 14.339 5.39383L19.3232 8.1951C20.1402 8.67531 20.7122 9.55571 20.7122 10.5161V14.1978L25.0427 11.7167V8.03504C25.0427 7.07458 24.5525 6.19419 23.6537 5.71397L14.4207 0.431575C13.6036 -0.0486434 12.5414 -0.0486434 11.6426 0.431575L2.24621 5.71397C1.34742 6.19419 0.857178 7.07458 0.857178 8.03504V18.6799C0.857178 19.6403 1.34742 20.5208 2.24621 21.001L11.6426 26.2833C12.4597 26.7635 13.5219 26.7635 14.4207 26.2833L20.7939 22.6817L25.1244 20.2006L31.4977 16.5989C32.3147 16.1187 33.3769 16.1187 34.2757 16.5989L39.2599 19.4002C40.0769 19.8804 40.6489 20.7609 40.6489 21.7213V27.4038C40.6489 28.3643 40.1587 29.2446 39.2599 29.7248L34.2757 32.6062C33.4585 33.0864 32.3964 33.0864 31.4977 32.6062L26.5135 29.8049C25.6964 29.3247 25.1244 28.4443 25.1244 27.4838V23.8022L20.7939 26.2833V29.9649C20.7939 30.9253 21.2842 31.8058 22.1829 32.286L31.5794 37.5684C32.3964 38.0486 33.4585 38.0486 34.3574 37.5684L43.7539 32.286C44.5709 31.8058 45.1429 30.9253 45.1429 29.9649V19.3201C45.1429 18.3597 44.6526 17.4794 43.7539 16.9992L34.2757 11.6367Z" fill="#8247E5"/>
</svg>
