<svg width="70" height="70" viewBox="0 0 70 70" fill="none" xmlns="http://www.w3.org/2000/svg">
<path d="M64.0741 43.2133C56.2091 44.8631 55.6683 42.1554 55.6683 42.1554C63.9723 29.6259 67.4439 13.7215 64.4483 9.82893C56.2755 -0.789162 42.1281 4.23255 41.892 4.3627L41.8161 4.37669C40.2621 4.04861 38.5233 3.85338 36.5686 3.82084C33.0101 3.76168 30.3105 4.76957 28.2619 6.34917C28.2619 6.34917 3.02447 -4.22293 4.19841 19.6454C4.44806 24.723 11.3558 58.066 19.5948 47.9949C22.6062 44.3121 25.516 41.1983 25.516 41.1983C26.9611 42.1745 28.6912 42.6725 30.5048 42.4937L30.6458 42.3722C30.6019 42.8293 30.622 43.2765 30.7021 43.806C28.5796 46.2174 29.2034 46.6406 24.9604 47.5289C20.6669 48.4286 23.1891 50.0303 24.8359 50.4493C26.8323 50.9567 31.4508 51.6758 34.5714 47.2336L34.4471 47.7405C35.2786 48.4179 35.8625 52.1461 35.7647 55.5261C35.6668 58.9058 35.6015 61.2263 36.2566 63.0388C36.9122 64.8513 37.5651 68.9294 43.1431 67.7141C47.8037 66.6984 50.219 64.0666 50.5552 59.6763C50.7934 56.5552 51.3332 57.0167 51.3671 54.2262L51.8 52.9053C52.299 48.6744 51.8793 47.3094 54.7506 47.9443L55.4487 48.0067C57.5618 48.1043 60.328 47.6609 61.9516 46.8937C65.4472 45.2442 67.5206 42.4897 64.0736 43.2133H64.0741Z" fill="#336791"/>
<path d="M29.8285 22.2419C28.9959 22.1527 28.2419 22.2352 27.8605 22.4577C27.6461 22.5828 27.5796 22.7278 27.5616 22.8275C27.5138 23.0919 27.7542 23.3842 27.9021 23.535C28.3202 23.9618 28.931 24.2551 29.5355 24.3197C29.6231 24.3292 29.7104 24.3335 29.7971 24.3335C30.8052 24.3335 31.7219 23.729 31.8027 23.2828C31.9036 22.7239 30.8502 22.3515 29.8285 22.2421" fill="white"/>
<path d="M53.0759 21.7161C53.0104 21.208 52.1766 21.0631 51.3853 21.1824C50.5949 21.3018 49.8287 21.6886 49.8927 22.1979C49.9438 22.594 50.6034 23.2701 51.384 23.2701C51.45 23.2701 51.5165 23.2653 51.5836 23.2551C52.1047 23.1768 52.487 22.8179 52.6687 22.6112C52.9451 22.2959 53.1054 21.9445 53.0759 21.7161Z" fill="white"/>
<path d="M66.8353 43.0017C66.5346 42.0807 65.5666 41.7845 63.9584 42.1208C59.1835 43.1188 57.4735 42.4275 56.9121 42.0088C60.6236 36.2825 63.6768 29.3605 65.3239 22.9024C66.1042 19.8432 66.5351 17.0021 66.5704 14.6863C66.6094 12.1447 66.1819 10.277 65.3003 9.13602C61.7462 4.53649 56.5297 2.06926 50.2153 2.00158C45.8743 1.95216 42.2066 3.07726 41.4956 3.39366C39.9983 3.01656 38.366 2.78504 36.5889 2.7555C33.3302 2.70205 30.5132 3.49223 28.1811 5.10294C27.168 4.72101 24.55 3.81077 21.3482 3.28837C15.813 2.38592 11.4144 3.06974 8.27555 5.32183C4.53015 8.0093 2.80106 12.8132 3.13601 19.5998C3.24872 21.8831 4.53334 28.9071 6.56051 35.6339C9.22894 44.4875 12.1297 49.4996 15.1816 50.5307C15.5388 50.6513 15.9507 50.7356 16.4049 50.7356C17.5182 50.7356 18.8832 50.2275 20.3034 48.4983C22.0355 46.3938 23.8273 44.3404 25.6765 42.3407C26.8763 42.9929 28.1943 43.3571 29.5423 43.3936C29.545 43.4293 29.5484 43.465 29.5516 43.5005C29.3196 43.7807 29.0923 44.065 28.8701 44.3532C27.936 45.5541 27.7416 45.8041 24.7351 46.431C23.8798 46.6099 21.6084 47.0839 21.575 48.6965C21.5389 50.4585 24.2601 51.1984 24.5701 51.2768C25.6505 51.5508 26.6914 51.6859 27.6841 51.6859C30.0982 51.6859 32.2227 50.8823 33.9205 49.3274C33.8682 55.6086 34.1268 61.7979 34.8715 63.6836C35.4814 65.2274 36.9713 69.0003 41.6775 69C42.3681 69 43.1282 68.9186 43.9643 68.7371C48.8761 67.6708 51.0091 65.4721 51.8341 60.625C52.2757 58.0345 53.0333 51.8487 53.3898 48.5306C54.1419 48.7682 55.1101 48.877 56.1568 48.8768C58.3399 48.8768 60.8591 48.407 62.4389 47.6644C64.2136 46.8296 67.4161 44.7814 66.8353 43.0017ZM55.1385 20.5802C55.1223 21.5597 54.9892 22.449 54.8481 23.3772C54.6961 24.3756 54.5391 25.4077 54.4996 26.6607C54.4606 27.8801 54.611 29.1478 54.7563 30.3739C55.0502 32.8503 55.3517 35.3997 54.1846 37.9152C53.9907 37.5673 53.818 37.2077 53.6674 36.8385C53.5224 36.4823 53.2073 35.9102 52.771 35.1185C51.074 32.0362 47.1 24.8182 49.1344 21.8729C49.7404 20.9962 51.2782 20.0948 55.1385 20.5802ZM50.4593 3.98508C56.1171 4.11159 60.5925 6.25517 63.7611 10.3559C66.1914 13.5013 63.5153 27.8135 55.7681 40.1606C55.6901 40.0603 55.6118 39.9603 55.5331 39.8606L55.435 39.7365C57.4369 36.3881 57.0455 33.0751 56.697 30.1378C56.5538 28.9324 56.4186 27.7939 56.4531 26.7243C56.4886 25.5909 56.6366 24.6186 56.7798 23.6786C56.9556 22.5202 57.1346 21.3215 57.0853 19.9085C57.1222 19.7602 57.137 19.5851 57.1176 19.3772C56.9917 18.0222 55.4641 13.9668 52.3507 10.2963C50.6476 8.28863 48.164 6.04191 44.7729 4.52655C46.2315 4.22036 48.2261 3.93486 50.4593 3.98508ZM18.8005 47.2327C17.2358 49.1381 16.1554 48.7728 15.8 48.653C13.4848 47.8709 10.7984 42.915 8.42989 35.0561C6.38044 28.2561 5.18281 21.4182 5.08787 19.5007C4.78872 13.4366 6.24015 9.21042 9.40211 6.93926C14.548 3.24352 23.0084 5.45559 26.408 6.57747C26.3592 6.62635 26.3082 6.67201 26.26 6.7217C20.6813 12.4275 20.8136 22.1761 20.8274 22.7721C20.8269 23.002 20.8459 23.3275 20.8719 23.7753C20.9679 25.415 21.1467 28.4667 20.6693 31.9226C20.2259 35.134 21.2034 38.2773 23.3507 40.5466C23.5711 40.779 23.8027 41.0002 24.0448 41.2094C23.089 42.2462 21.0117 44.5388 18.8005 47.2327ZM24.7619 39.1771C23.0312 37.348 22.2451 34.8039 22.605 32.1965C23.1089 28.5459 22.923 25.3664 22.823 23.6582C22.8089 23.4191 22.7965 23.2096 22.7893 23.0445C23.6043 22.3126 27.381 20.2633 30.0743 20.8883C31.3032 21.1732 32.0522 22.0209 32.3635 23.4788C33.9749 31.0268 32.5767 34.1728 31.4534 36.701C31.2218 37.2217 31.003 37.7141 30.8163 38.2233L30.6715 38.6171C30.305 39.6124 29.964 40.538 29.7526 41.4168C27.9127 41.4114 26.1229 40.6153 24.7619 39.1768V39.1771ZM25.0443 49.3564C24.507 49.2205 24.0238 48.9845 23.7403 48.7887C23.9771 48.6759 24.3985 48.5222 25.1294 48.3697C28.6664 47.6324 29.2127 47.1119 30.4056 45.578C30.679 45.2261 30.989 44.8276 31.4183 44.342L31.4189 44.3414C32.0583 43.6162 32.3508 43.7393 32.8812 43.9622C33.3111 44.1421 33.7298 44.6879 33.8995 45.2885C33.9799 45.5721 34.0701 46.1103 33.7749 46.5293C31.2831 50.0628 27.652 50.0174 25.0443 49.3564ZM43.5549 66.8016C39.2279 67.7406 37.6959 65.5046 36.6862 62.9485C36.0346 61.2983 35.7143 53.8569 35.9416 45.639C35.9445 45.5296 35.9291 45.4241 35.8994 45.3247C35.8728 45.1285 35.8324 44.9344 35.7785 44.744C35.4406 43.5483 34.6172 42.5481 33.6293 42.1334C33.2368 41.9687 32.5165 41.6666 31.6509 41.8908C31.8355 41.1205 32.1556 40.2506 32.5027 39.3087L32.6483 38.9125C32.8122 38.4658 33.018 38.0031 33.2355 37.5132C34.4111 34.8681 36.0211 31.2452 34.2737 23.0606C33.6192 19.9949 31.4335 18.4978 28.1201 18.8457C26.1337 19.0538 24.3163 19.8655 23.4099 20.3309C23.215 20.4308 23.0368 20.5275 22.8702 20.6215C23.1232 17.5328 24.079 11.7604 27.6544 8.10814C29.9057 5.80905 32.9037 4.67347 36.5566 4.73471C43.754 4.85396 48.3696 8.59482 50.9743 11.7123C53.219 14.3984 54.4344 17.1044 54.9194 18.5639C51.2716 18.1882 48.7907 18.9174 47.5331 20.7384C44.7971 24.6995 49.0299 32.3875 51.0642 36.0824C51.4374 36.7595 51.7593 37.3448 51.8606 37.5935C52.5231 39.2195 53.3807 40.3051 54.0069 41.0974C54.1989 41.3402 54.385 41.5758 54.5267 41.7815C53.4218 42.1041 51.4374 42.8494 51.6182 46.575C51.4724 48.4443 50.4352 57.1965 49.9082 60.2887C49.2126 64.3739 47.7283 65.8954 43.5549 66.8019V66.8016ZM61.6159 45.8691C60.4862 46.4001 58.5956 46.7984 56.7997 46.8841C54.816 46.9781 53.8061 46.659 53.5685 46.4627C53.4571 44.1411 54.3103 43.8985 55.2133 43.6418C55.3551 43.6015 55.4936 43.562 55.6272 43.5147C55.7102 43.5832 55.8012 43.6512 55.9009 43.7178C57.4953 44.7835 60.339 44.8985 64.3539 44.0591L64.3979 44.0503C63.8563 44.563 62.9297 45.2511 61.6159 45.8691Z" fill="white"/>
</svg>
