<svg width="50" height="44" viewBox="0 0 50 44" fill="none" xmlns="http://www.w3.org/2000/svg">
<path fill-rule="evenodd" clip-rule="evenodd" d="M47.0398 37.4377C46.4493 37.4402 45.8787 37.6486 45.4286 38.0262L40.9545 34.2219L44.3915 23.7236C44.4295 23.7236 44.4656 23.7355 44.5053 23.7355C44.9703 23.7355 45.4164 23.553 45.7452 23.2282C46.074 22.9033 46.2588 22.4627 46.2588 22.0033C46.2588 21.5439 46.074 21.1032 45.7452 20.7784C45.4164 20.4535 44.9703 20.271 44.5053 20.271C44.4656 20.271 44.4294 20.2795 44.3907 20.2821L41.3907 11.1141C41.7119 10.9145 41.9588 10.6172 42.0943 10.267C42.2297 9.91678 42.2464 9.53259 42.1418 9.17221C42.0372 8.81182 41.8169 8.49474 41.5142 8.26868C41.2114 8.04262 40.8426 7.91982 40.4631 7.91872C40.0539 7.92082 39.6588 8.06663 39.3484 8.33007L31.4372 2.65637C31.5284 2.43717 31.5728 2.20174 31.5676 1.9648C31.5624 1.72786 31.5077 1.49456 31.407 1.27946C31.3063 1.06437 31.1617 0.872119 30.9823 0.714799C30.8029 0.55748 30.5925 0.43847 30.3644 0.365204C30.1362 0.291939 29.8952 0.266 29.6565 0.289027C29.4177 0.312054 29.1864 0.383555 28.9769 0.499028C28.7674 0.614502 28.5843 0.771465 28.4391 0.960095C28.2938 1.14873 28.1896 1.36494 28.1329 1.59522H18.5544C18.4971 1.36575 18.3924 1.15044 18.2471 0.962694C18.1017 0.774948 17.9188 0.618811 17.7096 0.504018C17.5005 0.389226 17.2696 0.318242 17.0315 0.295499C16.7933 0.272756 16.553 0.298742 16.3254 0.371832C16.0979 0.444922 15.888 0.563545 15.709 0.720309C15.5299 0.877073 15.3855 1.06861 15.2846 1.28297C15.1838 1.49733 15.1288 1.7299 15.123 1.9662C15.1172 2.2025 15.1608 2.43745 15.251 2.65637L7.33895 8.33007C7.02836 8.06644 6.63292 7.92062 6.22343 7.91872C5.84408 7.92019 5.47546 8.04327 5.17299 8.26946C4.87053 8.49565 4.65057 8.81272 4.54617 9.17301C4.44178 9.53331 4.45861 9.91734 4.59411 10.2674C4.72961 10.6174 4.97646 10.9146 5.29756 11.1141L2.31137 20.2387C2.26826 20.2387 2.22514 20.2259 2.18203 20.2259C1.71699 20.2259 1.27101 20.4084 0.942179 20.7333C0.613343 21.0581 0.428589 21.4987 0.428589 21.9581C0.428589 22.4176 0.613343 22.8582 0.942179 23.183C1.27101 23.5079 1.71699 23.6904 2.18203 23.6904C2.21565 23.6904 2.24842 23.6827 2.2829 23.6802L5.30014 32.8925C4.97903 33.092 4.73218 33.3891 4.59668 33.7392C4.46118 34.0892 4.44436 34.4732 4.54875 34.8335C4.65315 35.1938 4.87311 35.5109 5.17557 35.7371C5.47803 35.9633 5.84666 36.0864 6.22601 36.0878C6.62594 36.0867 7.0129 35.9475 7.31998 35.6944L15.251 41.3544C15.1614 41.5734 15.1185 41.8083 15.1248 42.0444C15.1312 42.2805 15.1866 42.5128 15.2878 42.7268C15.3889 42.9408 15.5336 43.1319 15.7128 43.2883C15.892 43.4446 16.1019 43.5628 16.3293 43.6356C16.5568 43.7083 16.797 43.734 17.0349 43.711C17.2729 43.6881 17.5035 43.6169 17.7124 43.5021C17.9213 43.3872 18.104 43.2311 18.2492 43.0435C18.3944 42.8558 18.4989 42.6406 18.5562 42.4113H28.1355C28.2378 42.8203 28.4884 43.1778 28.8399 43.4163C29.1913 43.6548 29.6192 43.7575 30.0422 43.7049C30.4653 43.6524 30.8541 43.4483 31.1349 43.1314C31.4157 42.8144 31.569 42.4067 31.5657 41.9855C31.5646 41.7682 31.5225 41.553 31.4415 41.351L40.4415 34.8913L44.8751 38.6632C44.5921 39.137 44.4755 39.6899 44.5438 40.2359C44.612 40.7819 44.8611 41.2902 45.2524 41.6817C45.6436 42.0732 46.1549 42.3259 46.7066 42.4003C47.2584 42.4748 47.8195 42.3668 48.3027 42.0933C48.7858 41.8197 49.1638 41.396 49.3777 40.8881C49.5916 40.3802 49.6295 39.8166 49.4853 39.2852C49.3412 38.7538 49.0232 38.2845 48.5808 37.9503C48.1385 37.6161 47.5966 37.4359 47.0398 37.4377ZM40.7467 11.8797L43.5812 20.5402C43.2015 20.7778 42.9292 21.1508 42.8208 21.5817H41.3648C41.2988 21.289 41.1566 21.0184 40.9524 20.7967C40.7481 20.5749 40.4888 20.4095 40.2001 20.317L40.7467 11.8797ZM39.9329 11.293L39.351 20.2574C39.3105 20.2651 39.27 20.2761 39.2294 20.2864L35.6243 13.5217C35.8057 13.3606 35.9509 13.1636 36.0504 12.9436C36.1499 12.7235 36.2015 12.4852 36.2019 12.2442C36.1998 12.1479 36.1897 12.0519 36.1717 11.9572L36.6407 11.7571L39.0881 10.7045C39.3026 10.9809 39.5973 11.1861 39.9329 11.293ZM30.1536 20.3051C29.8856 20.2501 29.6079 20.2635 29.3467 20.3443L24.5389 12.0756C24.717 11.9106 24.8582 11.7108 24.9536 11.4888L32.7329 12.4469C32.7837 12.8869 33.0052 13.2902 33.351 13.572L30.1536 20.3051ZM34.126 13.9424C34.2351 13.9635 34.3459 13.9746 34.4571 13.9756C34.5977 13.9739 34.7375 13.955 34.8734 13.9194L38.4829 20.6909C38.2228 20.929 38.0424 21.2397 37.9657 21.5817H31.507C31.4209 21.2408 31.2307 20.9342 30.9622 20.7037L34.126 13.9424ZM28.6088 20.7641C28.3778 20.9882 28.2142 21.2713 28.1364 21.5817H18.5536C18.477 21.2703 18.3133 20.9864 18.0812 20.7624L22.8941 12.4861C23.188 12.5724 23.501 12.5724 23.795 12.4861L28.6088 20.7641ZM17.3415 20.3443C17.1891 20.2985 17.031 20.2741 16.8717 20.2719C16.7588 20.2721 16.6462 20.2832 16.5355 20.3051L13.3407 13.5771C13.6871 13.2947 13.9098 12.891 13.9622 12.4503L21.726 11.4548C21.8181 11.6842 21.9579 11.8919 22.1363 12.0645L17.3415 20.3443ZM15.7691 20.6722C15.481 20.9058 15.2764 21.2246 15.1855 21.5817H8.77344C8.68915 21.2483 8.50567 20.9475 8.24669 20.7181L11.8303 13.9237C11.9631 13.957 12.0994 13.9745 12.2364 13.9756C12.3493 13.9747 12.4618 13.9633 12.5726 13.9416L15.7691 20.6722ZM8.77344 22.4291H15.1786C15.2698 22.7866 15.4747 23.1057 15.7631 23.3395L12.5639 30.0777C12.4549 30.056 12.3441 30.0446 12.2329 30.0437C12.095 30.0453 11.9578 30.0633 11.8243 30.0973L8.24153 23.2944C8.50262 23.0651 8.68794 22.7637 8.77344 22.4291ZM16.5321 23.7066C16.6428 23.728 16.7554 23.7392 16.8682 23.7398C17.0287 23.7377 17.1881 23.713 17.3415 23.6665L22.1303 31.9028C21.9503 32.0771 21.8106 32.2877 21.7208 32.5203L13.9622 31.5639C13.9086 31.1246 13.6853 30.7228 13.3389 30.4423L16.5321 23.7066ZM18.0838 23.2475C18.3143 23.023 18.4772 22.7397 18.5544 22.4291H28.1329C28.2108 22.7396 28.374 23.0228 28.6045 23.2475L23.8174 31.4855C23.509 31.3878 23.1775 31.3878 22.8691 31.4855L18.0838 23.2475ZM29.3467 23.6665C29.5001 23.7133 29.6595 23.7379 29.82 23.7398C29.9323 23.7392 30.0443 23.7281 30.1544 23.7066L33.3544 30.4448C33.0098 30.7248 32.7878 31.1254 32.7346 31.563L24.9665 32.5203C24.877 32.2875 24.7373 32.0768 24.557 31.9028L29.3467 23.6665ZM30.9226 23.3395C31.2105 23.1054 31.415 22.7863 31.5062 22.4291H37.9924C38.0833 22.7491 38.2659 23.0363 38.5183 23.2561L34.87 30.0939C34.7351 30.059 34.5965 30.0404 34.4571 30.0386C34.3441 30.0394 34.2315 30.0511 34.1208 30.0735L30.9226 23.3395ZM30.9346 3.34197L38.8476 9.01564C38.7643 9.21888 38.7213 9.436 38.7208 9.65523C38.7224 9.74812 38.7319 9.8407 38.7493 9.932L35.8277 11.1873C35.6382 10.9356 35.3807 10.7417 35.0847 10.628C34.7888 10.5142 34.4663 10.4853 34.1545 10.5444L31.0769 3.76267L30.9045 3.37176C30.9114 3.35898 30.9243 3.35219 30.9346 3.33857V3.34197ZM29.1708 3.62641C29.3768 3.71001 29.5973 3.75313 29.82 3.75332C29.9227 3.7518 30.0251 3.74154 30.126 3.72265L30.5932 4.75228L33.3795 10.8935C33.1399 11.0797 32.9539 11.3246 32.8398 11.6038L25.0674 10.6065C25.0276 10.2894 24.8992 9.98955 24.6967 9.7404L29.1708 3.62641ZM18.5544 2.44346H28.1338C28.1971 2.69011 28.3148 2.91988 28.4786 3.11627L23.9562 9.20555C23.5507 9.04882 23.0996 9.05247 22.6967 9.21577L18.2053 3.12139C18.3716 2.9228 18.4909 2.69001 18.5544 2.44006V2.44346ZM16.8691 3.75332C17.0915 3.75312 17.3117 3.71 17.5174 3.62641L21.9889 9.73955C21.7871 9.98769 21.6591 10.2864 21.6191 10.6023L13.8519 11.6098C13.7391 11.3284 13.5529 11.0816 13.3122 10.8944L16.5605 3.72179C16.6623 3.74002 16.7656 3.74941 16.8691 3.74989V3.75332ZM15.7527 3.34197L15.789 3.37261L12.5407 10.5444C12.4403 10.5257 12.3385 10.5157 12.2364 10.5146C11.9687 10.5146 11.7047 10.5761 11.4653 10.6944C11.2259 10.8126 11.0176 10.9843 10.857 11.1959L7.93549 9.93713C7.95208 9.84487 7.96131 9.75146 7.96309 9.65778C7.96234 9.43873 7.91993 9.22177 7.83807 9.01819L15.7527 3.34197ZM7.5993 10.7087L10.52 11.9675C10.5034 12.0597 10.4939 12.1531 10.4915 12.2468C10.4923 12.4898 10.5448 12.7299 10.6458 12.9515C10.7469 13.1731 10.894 13.3712 11.0777 13.5328L7.49325 20.3272C7.46049 20.3196 7.42775 20.3119 7.39499 20.3059L6.7648 11.2896C7.09603 11.182 7.38683 10.9784 7.5993 10.7053V10.7087ZM5.95445 32.1558L3.0993 23.4272C3.46985 23.1986 3.74043 22.8414 3.8579 22.4257H5.40532C5.47689 22.7075 5.61948 22.9667 5.81981 23.1794C6.02013 23.392 6.27168 23.5511 6.55102 23.6419L5.95445 32.1558ZM5.40532 21.5817H3.88549C3.78621 21.1365 3.51253 20.7482 3.12429 20.5018L5.95359 11.8508L6.55015 20.3673C6.27038 20.4574 6.01825 20.616 5.81731 20.8283C5.61637 21.0407 5.47315 21.2999 5.40101 21.5817H5.40532ZM6.76911 32.717L7.39928 23.7049C7.43203 23.6997 7.46394 23.693 7.4967 23.6853L10.8381 30.0301L11.0803 30.4891C10.8969 30.6505 10.75 30.8483 10.6493 31.0696C10.5485 31.2909 10.4963 31.5307 10.4958 31.7734C10.4984 31.8639 10.5077 31.9541 10.5234 32.0434L7.59238 33.291C7.38031 33.0228 7.09223 32.8229 6.7648 32.717H6.76911ZM15.7545 40.6706L7.83807 35.0216C7.92678 34.8105 7.97219 34.5841 7.97169 34.3556C7.96988 34.2628 7.96096 34.1702 7.94499 34.0788L10.8622 32.8243C11.0511 33.0787 11.3091 33.275 11.6064 33.3903C11.9036 33.5057 12.2279 33.5353 12.5415 33.4758L15.7924 40.6382L15.7545 40.6706ZM17.5217 40.3836C17.3158 40.3006 17.0957 40.2578 16.8734 40.2575C16.7708 40.2592 16.6684 40.2692 16.5674 40.2873L15.8674 38.745L13.3165 33.1241C13.5615 32.9344 13.75 32.6828 13.8622 32.3959L15.745 32.6276L21.6269 33.3515C21.6662 33.679 21.801 33.9882 22.0148 34.2415L21.2545 35.2805L17.5217 40.3836ZM28.1381 41.5665H18.5544C18.4903 41.3161 18.3698 41.0832 18.2019 40.8852L22.6958 34.7465C23.11 34.9148 23.5747 34.9148 23.9889 34.7465L28.4829 40.8852C28.3158 41.0832 28.1964 41.3162 28.1338 41.5665H28.1381ZM30.1303 40.289C30.0293 40.2708 29.9269 40.2609 29.8243 40.2592C29.6017 40.2595 29.3813 40.3024 29.1751 40.3853L27.3346 37.872L24.682 34.2466C24.8958 33.9931 25.0311 33.6841 25.0717 33.3566L31.0407 32.6208L32.8381 32.4002C32.9463 32.6725 33.1225 32.9133 33.3501 33.1003L30.2398 40.0463L30.1303 40.289ZM30.9424 40.6714L30.9053 40.6416L31.0148 40.3955L34.1553 33.4767C34.2562 33.496 34.3586 33.5063 34.4613 33.5073C34.7256 33.5063 34.9862 33.4455 35.223 33.3296C35.4599 33.2137 35.6667 33.0458 35.8277 32.8388L39.6088 34.4501L30.9424 40.6714ZM36.1777 32.0519C36.1943 31.9605 36.2038 31.8679 36.2062 31.7751C36.2051 31.5339 36.1528 31.2955 36.0528 31.0755C35.9527 30.8554 35.807 30.6586 35.6251 30.4976L37.6398 26.7188L39.2777 23.6478L39.351 23.664L40.0019 33.699L36.1777 32.0519ZM40.1984 23.6027C40.4711 23.5145 40.7176 23.3613 40.9161 23.1566C41.1145 22.9519 41.2589 22.702 41.3363 22.4291H42.8208C42.9304 22.8592 43.2024 23.2316 43.5812 23.4698L40.7467 32.1302L40.1984 23.6027Z" fill="white"/>
</svg>
