<svg width="70" height="70" viewBox="0 0 70 70" fill="none" xmlns="http://www.w3.org/2000/svg">
<path d="M70 35.1761C70 30.5389 64.1928 26.1443 55.2894 23.4191C57.3441 14.3445 56.4309 7.12474 52.4073 4.81329C51.4798 4.2711 50.3954 4.01427 49.2112 4.01427V7.19609C49.8675 7.19609 50.3954 7.3245 50.8377 7.56706C52.7782 8.67998 53.6201 12.9177 52.9637 18.3681C52.8068 19.7093 52.5499 21.1219 52.236 22.563C49.4395 21.8781 46.3861 21.3502 43.1757 21.0077C41.2495 18.3681 39.2519 15.9711 37.2401 13.8736C41.8916 9.55035 46.2576 7.18182 49.2254 7.18182V4C45.3017 4 40.1651 6.79658 34.9715 11.6478C29.7778 6.82511 24.6413 4.05707 20.7175 4.05707V7.23889C23.671 7.23889 28.0514 9.59315 32.7028 13.8879C30.7053 15.9853 28.7077 18.3681 26.81 21.0077C23.5854 21.3502 20.532 21.8781 17.7354 22.5773C17.4073 21.1504 17.1647 19.7664 16.9935 18.4395C16.3229 12.989 17.1504 8.75133 19.0766 7.62413C19.5047 7.36731 20.0611 7.25316 20.7175 7.25316V4.07134C19.519 4.07134 18.4346 4.32817 17.4929 4.87036C13.4835 7.18182 12.5846 14.3873 14.6535 23.4333C5.77864 26.1728 0 30.5532 0 35.1761C0 39.8133 5.80717 44.2079 14.7106 46.9331C12.6559 56.0077 13.5691 63.2275 17.5927 65.5389C18.5202 66.0811 19.6046 66.338 20.8031 66.338C24.7269 66.338 29.8634 63.5414 35.0571 58.6902C40.2507 63.5128 45.3873 66.2809 49.311 66.2809C50.5096 66.2809 51.594 66.0241 52.5357 65.4819C56.5451 63.1704 57.4439 55.9649 55.375 46.9189C64.2214 44.1936 70 39.799 70 35.1761ZM51.4227 25.6592C50.8948 27.4998 50.2385 29.3975 49.4965 31.2951C48.9115 30.1537 48.298 29.0122 47.6274 27.8708C46.9711 26.7293 46.2719 25.6164 45.5728 24.532C47.5989 24.8316 49.5536 25.2026 51.4227 25.6592ZM44.8879 40.8549C43.775 42.7811 42.6335 44.6074 41.4492 46.3053C39.3233 46.4908 37.1688 46.5907 35 46.5907C32.8455 46.5907 30.691 46.4908 28.5793 46.3196C27.395 44.6217 26.2393 42.8096 25.1264 40.8977C24.042 39.0285 23.0575 37.1309 22.1586 35.2189C23.0432 33.307 24.042 31.395 25.1121 29.5259C26.225 27.5997 27.3665 25.7733 28.5508 24.0754C30.6767 23.8899 32.8312 23.7901 35 23.7901C37.1545 23.7901 39.309 23.8899 41.4207 24.0612C42.605 25.7591 43.7607 27.5711 44.8736 29.4831C45.958 31.3522 46.9425 33.2499 47.8414 35.1618C46.9425 37.0738 45.958 38.9857 44.8879 40.8549ZM49.4965 39C50.267 40.9119 50.9234 42.8239 51.4656 44.6788C49.5964 45.1353 47.6274 45.5206 45.587 45.8202C46.2862 44.7216 46.9853 43.5944 47.6417 42.4386C48.298 41.2972 48.9115 40.1415 49.4965 39ZM35.0285 54.2242C33.7016 52.8545 32.3746 51.3278 31.062 49.6584C32.3461 49.7155 33.6588 49.7583 34.9857 49.7583C36.3269 49.7583 37.6539 49.7297 38.9523 49.6584C37.6682 51.3278 36.3412 52.8545 35.0285 54.2242ZM24.413 45.8202C22.3869 45.5206 20.4321 45.1496 18.563 44.693C19.0909 42.8524 19.7472 40.9548 20.4892 39.0571C21.0742 40.1985 21.6877 41.34 22.3583 42.4815C23.0289 43.6229 23.7138 44.7358 24.413 45.8202ZM34.9572 16.128C36.2841 17.4978 37.6111 19.0245 38.9238 20.6938C37.6396 20.6368 36.3269 20.594 35 20.594C33.6588 20.594 32.3318 20.6225 31.0334 20.6938C32.3176 19.0245 33.6445 17.4978 34.9572 16.128ZM24.3987 24.532C23.6996 25.6307 23.0004 26.7578 22.3441 27.9136C21.6877 29.055 21.0742 30.1965 20.4892 31.338C19.7187 29.426 19.0624 27.5141 18.5202 25.6592C20.3893 25.2169 22.3583 24.8316 24.3987 24.532ZM11.4859 42.3958C6.43498 40.2413 3.16755 37.4162 3.16755 35.1761C3.16755 32.936 6.43498 30.0966 11.4859 27.9564C12.713 27.4285 14.0542 26.9576 15.4382 26.5153C16.2515 29.3119 17.3216 32.2226 18.6486 35.2046C17.3359 38.1724 16.2801 41.0689 15.481 43.8512C14.0685 43.4089 12.7273 42.9238 11.4859 42.3958ZM19.1623 62.7852C17.2218 61.6722 16.3799 57.4346 17.0363 51.9841C17.1932 50.6429 17.4501 49.2303 17.764 47.7892C20.5605 48.4741 23.6139 49.002 26.8243 49.3445C28.7505 51.9841 30.7481 54.3812 32.7599 56.4786C28.1084 60.8019 23.7424 63.1704 20.7746 63.1704C20.1325 63.1561 19.5903 63.0277 19.1623 62.7852ZM53.0065 51.9128C53.6771 57.3632 52.8496 61.6009 50.9234 62.7281C50.4953 62.9849 49.9388 63.0991 49.2825 63.0991C46.329 63.0991 41.9486 60.7448 37.2972 56.4501C39.2947 54.3526 41.2923 51.9698 43.19 49.3302C46.4146 48.9878 49.468 48.4598 52.2646 47.7607C52.5927 49.2018 52.8496 50.5858 53.0065 51.9128ZM58.4998 42.3958C57.2727 42.9238 55.9315 43.3946 54.5475 43.8369C53.7342 41.0404 52.6641 38.1296 51.3371 35.1476C52.6498 32.1798 53.7057 29.2833 54.5047 26.501C55.9172 26.9433 57.2585 27.4285 58.5141 27.9564C63.565 30.1109 66.8324 32.936 66.8324 35.1761C66.8182 37.4162 63.5508 40.2556 58.4998 42.3958Z" fill="#61DAFB"/>
<path d="M34.9859 41.6967C38.5871 41.6967 41.5065 38.7773 41.5065 35.1761C41.5065 31.5749 38.5871 28.6555 34.9859 28.6555C31.3847 28.6555 28.4653 31.5749 28.4653 35.1761C28.4653 38.7773 31.3847 41.6967 34.9859 41.6967Z" fill="#61DAFB"/>
</svg>
