<svg width="70" height="70" viewBox="0 0 70 70" fill="none" xmlns="http://www.w3.org/2000/svg">
<path d="M35.5 1C16.4415 1 1 16.4415 1 35.5C1 54.5585 16.4415 70 35.5 70C54.5585 70 70 54.5585 70 35.5C70 16.4415 54.5585 1 35.5 1ZM52.444 24.6353L46.7821 51.3171C46.3647 53.2091 45.2379 53.6681 43.6659 52.7778L35.0409 46.4204L30.8815 50.4268C30.4224 50.8859 30.0329 51.2754 29.1425 51.2754L29.7546 42.4974L45.7387 28.0575C46.4343 27.4454 45.5857 27.0976 44.6675 27.7097L24.9135 40.1464L16.3998 37.4893C14.5496 36.905 14.5079 35.6391 16.7893 34.7488L50.0512 21.9226C51.5954 21.3661 52.9448 22.2982 52.444 24.6353Z" fill="#3AB7FD"/>
</svg>
