<svg width="70" height="70" viewBox="0 0 70 70" fill="none" xmlns="http://www.w3.org/2000/svg">
<path fill-rule="evenodd" clip-rule="evenodd" d="M35 4.69897L35.9889 5.26151C46.2045 11.0727 52.0836 21.463 52.4833 32.2971C61.7902 38.0411 68 48.2496 68 59.9028V61.066L66.9889 61.6412C56.7002 67.4939 44.7874 67.2671 35.2154 62.0726C25.4765 67.2617 13.3095 67.4994 3.01111 61.6412L2 61.066V59.9028C2 48.07 8.40241 37.7271 17.9492 32.0346C18.2569 21.313 23.8629 11.0343 34.0111 5.26151L35 4.69897ZM18.1466 36.6712C11.0865 41.6417 6.39838 49.6428 6.02419 58.7264C14.1296 62.9202 23.4124 62.9653 31.2645 59.543C27.8283 56.9753 24.8375 53.6816 22.5244 49.7342C20.1 45.5969 18.6573 41.146 18.1466 36.6712ZM35.2347 57.4356C31.5607 55.0579 28.364 51.7879 25.9756 47.7119C23.5054 43.4965 22.1978 38.9276 21.9714 34.3946C25.886 32.4536 30.3102 31.3593 35 31.3593C39.8715 31.3593 44.4567 32.54 48.4818 34.6243C48.2996 39.0846 47.0483 43.57 44.6212 47.7119C42.236 51.7825 38.9886 55.0545 35.2347 57.4356ZM39.1937 59.5742C46.8582 62.9613 55.9045 62.9114 63.9758 58.727C63.61 49.8408 59.1158 41.9909 52.311 37.0001C51.8282 41.362 50.4384 45.6965 48.0724 49.7342C45.7476 53.7016 42.7017 57.0047 39.1937 59.5742ZM48.3028 30.1122C44.2313 28.3417 39.7297 27.3593 35 27.3593C30.4246 27.3593 26.0625 28.2786 22.0967 29.9416C22.9748 21.716 27.4297 14.0421 35.0005 9.32686C42.6511 14.0815 47.3055 21.8352 48.3028 30.1122ZM35.375 38.9727C34.0352 38.9727 33 40.035 33 41.2833C33 42.5315 34.0352 43.5938 35.375 43.5938C36.7147 43.5938 37.75 42.5315 37.75 41.2833C37.75 40.035 36.7148 38.9727 35.375 38.9727ZM29 41.2833C29 37.7702 31.8823 34.9727 35.375 34.9727C38.8677 34.9727 41.75 37.7702 41.75 41.2833C41.75 44.7964 38.8677 47.5938 35.375 47.5938C31.8823 47.5938 29 44.7964 29 41.2833Z" fill="#34A932"/>
</svg>
