<svg width="70" height="70" viewBox="0 0 70 70" fill="none" xmlns="http://www.w3.org/2000/svg">
<path d="M27 12C33.7781 12 39.6812 15.7465 42.7514 21.2816C44.4955 20.4596 46.4441 20 48.5 20C55.4451 20 61.1653 25.2444 61.9164 31.9891L46.9941 46.9116C46.072 46.334 44.9819 46 43.8137 46C42.5491 46 41.376 46.3911 40.4087 47.0591L26.6682 33.3188C26.7075 33.1431 26.7393 32.9648 26.7629 32.7837C26.7964 32.5273 26.8137 32.2656 26.8137 32C26.8137 28.6865 24.1274 26 20.8137 26C17.5 26 14.8137 28.6865 14.8137 32C14.8137 32.4531 14.864 32.895 14.9592 33.3193L1.05665 47.2217C1.01917 46.8195 1 46.412 1 46C1 40.4364 4.49496 35.6891 9.40916 33.8338C9.14116 32.5984 9 31.3157 9 30C9 20.0589 17.0589 12 27 12Z" fill="#2DCAEC"/>
<path d="M2.77982 52.5698C5.03734 56.417 9.21702 59 14 59H56C63.1797 59 69 53.1797 69 46C69 42.1498 67.3262 38.6906 64.6666 36.3102L49.7627 51.2139C49.7964 51.4712 49.8137 51.7334 49.8137 52C49.8137 55.3135 47.1274 58 43.8137 58C40.5 58 37.8137 55.3135 37.8137 52C37.8137 51.8491 37.8191 51.7002 37.8301 51.5522L23.5955 37.3174C22.7639 37.7534 21.8176 38 20.8137 38C19.8098 38 18.8635 37.7534 18.032 37.3174L2.77982 52.5698Z" fill="#2DCAEC"/>
</svg>
