<svg width="70" height="70" viewBox="0 0 70 70" fill="none" xmlns="http://www.w3.org/2000/svg">
<path d="M30.3703 63.8339C30.2879 66.0678 17.1188 61.5896 10.1185 56.0298C30.6599 78.4019 65.6449 63.6899 66.9998 37.6267C62.8241 50.4188 46.0235 52.8089 29.617 42.2296C9.72637 28.1304 14.6012 6.72491 34.8679 4.72304C48.3675 3.79654 62.2754 15.2778 57.6348 24.27C51.972 34.3551 32.8782 26.2739 34.3945 15.8507C34.7414 12.4997 38.237 10.4173 37.2211 13.7968C34.7461 21.4718 49.5862 27.2589 52.9378 19.993C56.1282 11.9995 38.0001 6.00354 32.3052 11.3514C17.9706 25.3414 51.6651 43.3304 61.0054 29.6367C67.6523 19.3452 52.167 2.29741 34.607 3.02291C6.23565 3.43254 -5.40392 34.1123 12.6125 51.8074C22.8815 61.5633 30.6241 62.3477 30.3703 63.8337V63.8339Z" fill="#75584F"/>
</svg>
