<svg width="70" height="70" viewBox="0 0 70 70" fill="none" xmlns="http://www.w3.org/2000/svg">
<path fill-rule="evenodd" clip-rule="evenodd" d="M3 0C1.34315 0 0 1.34315 0 3V67C0 68.6569 1.34315 70 3 70H67C68.6569 70 70 68.6569 70 67V3C70 1.34315 68.6569 0 67 0H3ZM37.6899 66H41.9282V49.5391H47.3559V46.0117H32.2622V49.5391H37.6899V66ZM62.2359 64.7148C63.5392 63.6758 64.1909 62.2539 64.1909 60.4492C64.1909 59.1458 63.8446 58.0475 63.1519 57.1543C62.4592 56.252 61.1786 55.3542 59.3101 54.4609C57.8973 53.7865 56.9995 53.3216 56.6167 53.0664C56.243 52.8021 55.9696 52.5332 55.7964 52.2598C55.6232 51.9772 55.5366 51.6491 55.5366 51.2754C55.5366 50.6738 55.7508 50.1862 56.1792 49.8125C56.6076 49.4388 57.2228 49.252 58.0249 49.252C58.6994 49.252 59.383 49.3385 60.0757 49.5117C60.7775 49.6849 61.6616 49.9902 62.728 50.4277L64.0952 47.1328C63.0653 46.6862 62.0764 46.3398 61.1284 46.0938C60.1896 45.8477 59.2007 45.7246 58.1616 45.7246C56.0471 45.7246 54.3882 46.2305 53.1851 47.2422C51.9911 48.2539 51.3941 49.6439 51.3941 51.4121C51.3941 52.3509 51.5764 53.1712 51.9409 53.873C52.3055 54.5749 52.7932 55.1901 53.4038 55.7188C54.0145 56.2474 54.9305 56.7988 56.1519 57.373C57.4553 57.9928 58.3166 58.444 58.7359 58.7266C59.1642 59.0091 59.4878 59.3053 59.7066 59.6152C59.9253 59.916 60.0347 60.2624 60.0347 60.6543C60.0347 61.3561 59.784 61.8848 59.2827 62.2402C58.7905 62.5957 58.0796 62.7734 57.1499 62.7734C56.3752 62.7734 55.5184 62.6504 54.5796 62.4043C53.6499 62.1582 52.5106 61.7344 51.1616 61.1328V65.0703C52.8023 65.8724 54.689 66.2734 56.8218 66.2734C59.1369 66.2734 60.9416 65.7539 62.2359 64.7148Z" fill="#4EA2DF"/>
</svg>
