<svg width="70" height="70" viewBox="0 0 70 70" fill="none" xmlns="http://www.w3.org/2000/svg">
<path d="M0.617432 6.88424C0.617432 4.27411 2.37155 2.84977 3.24861 2.46387L8.35337 5.41078C7.47631 5.79669 5.7222 7.22103 5.7222 9.83115C5.73964 14.041 5.77453 22.8186 5.77453 24.25C5.77453 26.0392 6.61651 28.5651 8.72145 29.3018C10.4054 29.8912 10.8268 28.4248 10.827 27.6179V12.7781C10.827 10.1679 12.5811 8.7436 13.4581 8.3577L18.6147 11.3345C17.7376 11.7204 15.9835 13.1447 15.9835 15.7549C15.9835 19.9548 15.8993 28.7967 15.9835 30.5648C16.0887 32.775 17.4569 34.7747 19.3514 35.3009C20.8669 35.7219 21.1757 34.073 21.1406 33.196V18.732C21.1406 16.1219 22.8947 14.6975 23.7718 14.3116L28.9289 17.2887C27.6659 18.1457 26.2977 19.3034 26.2977 21.1978C26.3328 25.7936 26.3819 35.4062 26.2977 37.0901C26.1924 39.1951 24.9295 42.8787 21.2458 42.0367C17.7937 41.2789 14.6153 37.7216 13.4576 36.0376C11.8789 36.4586 9.87916 36.3534 5.56404 32.9855C2.11194 30.2912 0.827926 24.8464 0.617432 22.4608V6.88424Z" fill="#C4C4C4"/>
<path d="M31.4548 33.617V27.6179L36.6119 30.5648V36.5639L31.4548 33.617Z" fill="#C4C4C4"/>
<path d="M49.452 29.1365L44.3081 26.167C43.4618 26.6156 41.769 28.0178 41.769 30.0386V45.6151C41.7339 46.422 41.2428 47.8464 39.5588 47.0886C37.4539 46.1413 36.6119 43.8259 36.6119 42.4577L31.4548 39.5108C31.4899 41.8964 32.4652 47.4254 36.0857 50.4565C40.6113 54.2454 43.3477 54.6664 45.0316 53.2981C46.3788 52.2036 46.7858 49.8952 46.8208 48.8778V33.3012C46.7858 32.4439 47.2629 30.4106 49.452 29.1365Z" fill="#C4C4C4"/>
<path d="M69.9752 46.8781V40.9842L59.7136 35.0604C56.1878 33.025 52.7147 33.8275 52.0832 37.7216C51.4517 41.6157 53.2409 45.4046 55.0301 48.3515C56.8193 51.2985 60.9239 53.4034 61.8712 54.0349C62.8184 54.6664 65.0286 56.1398 64.8181 58.8762C64.6497 61.0654 62.9236 60.5602 62.0816 60.0339L51.9779 54.2454V60.2444L59.661 64.6648C59.661 64.6648 64.2708 67.6117 66.7125 67.1907C69.7647 66.6645 69.7647 63.8228 69.9752 61.4022C70.1857 58.9815 69.0279 54.7716 67.4492 52.4562C65.8705 50.1407 63.7656 49.1935 61.0292 47.6148C58.2928 46.0361 57.4508 45.5099 57.135 42.7734C56.8825 40.5843 58.3629 40.458 59.1347 40.6685L69.9752 46.8781Z" fill="#C4C4C4"/>
<path d="M34.1912 8.14751L23.6665 14.3119L28.8236 17.2891L39.3483 11.1997C39.9798 10.8839 41.6637 10.3787 43.3477 10.8839C45.4526 11.5154 46.0841 13.0941 44.5054 14.0413L33.8755 20.2054L39.059 23.1978L49.7677 16.9883C50.3992 16.7076 52.0411 16.2726 53.5566 16.7778C55.4511 17.4092 56.0826 18.8827 55.1353 19.6194L44.2029 26.1673L49.3468 29.1368C52.7497 27.1571 60.0188 22.9242 61.8711 21.8296C64.1866 20.4614 64.6076 18.3565 62.0816 15.9358C59.3031 13.4099 55.1003 12.2171 53.3461 11.9364C51.2412 8.88424 47.4523 6.9898 42.9267 6.46356C39.3062 6.04257 35.5945 7.41078 34.1912 8.14751Z" fill="#EF6830"/>
</svg>
